<mxfile host="Electron" modified="2023-10-11T20:48:07.300Z" agent="Mozilla/5.0 (Windows NT 10.0; Win64; x64) AppleWebKit/537.36 (KHTML, like Gecko) draw.io/22.0.2 Chrome/114.0.5735.289 Electron/25.8.4 Safari/537.36" etag="fpsAuX0p9ANIXsvLCbXc" version="22.0.2" type="device">
  <diagram name="Page-1" id="snTX3Z2Yv8t6O4lFCCUW">
    <mxGraphModel dx="475" dy="551" grid="1" gridSize="10" guides="1" tooltips="1" connect="1" arrows="1" fold="1" page="1" pageScale="1" pageWidth="850" pageHeight="1100" math="0" shadow="0">
      <root>
        <mxCell id="0" />
        <mxCell id="1" parent="0" />
        <mxCell id="LoA7sYSP_AqC4O0k0csA-12" style="edgeStyle=orthogonalEdgeStyle;rounded=0;orthogonalLoop=1;jettySize=auto;html=1;" parent="1" source="LoA7sYSP_AqC4O0k0csA-11" target="LoA7sYSP_AqC4O0k0csA-13" edge="1">
          <mxGeometry relative="1" as="geometry">
            <mxPoint x="220" y="760" as="targetPoint" />
          </mxGeometry>
        </mxCell>
        <mxCell id="LoA7sYSP_AqC4O0k0csA-11" value="Display View Podcasts Screen" style="whiteSpace=wrap;html=1;aspect=fixed;" parent="1" vertex="1">
          <mxGeometry x="180" y="570" width="80" height="80" as="geometry" />
        </mxCell>
        <mxCell id="LoA7sYSP_AqC4O0k0csA-15" style="edgeStyle=orthogonalEdgeStyle;rounded=0;orthogonalLoop=1;jettySize=auto;html=1;" parent="1" source="LoA7sYSP_AqC4O0k0csA-13" edge="1">
          <mxGeometry relative="1" as="geometry">
            <mxPoint x="220" y="930" as="targetPoint" />
          </mxGeometry>
        </mxCell>
        <mxCell id="LoA7sYSP_AqC4O0k0csA-19" value="" style="edgeStyle=orthogonalEdgeStyle;rounded=0;orthogonalLoop=1;jettySize=auto;html=1;" parent="1" source="LoA7sYSP_AqC4O0k0csA-13" target="LoA7sYSP_AqC4O0k0csA-17" edge="1">
          <mxGeometry relative="1" as="geometry" />
        </mxCell>
        <mxCell id="LoA7sYSP_AqC4O0k0csA-13" value="Display Social Media Sites" style="whiteSpace=wrap;html=1;aspect=fixed;" parent="1" vertex="1">
          <mxGeometry x="180" y="760" width="80" height="80" as="geometry" />
        </mxCell>
        <mxCell id="LoA7sYSP_AqC4O0k0csA-14" value="Podcast Selected" style="text;html=1;align=center;verticalAlign=middle;resizable=0;points=[];autosize=1;strokeColor=none;fillColor=none;" parent="1" vertex="1">
          <mxGeometry x="215" y="690" width="120" height="30" as="geometry" />
        </mxCell>
        <mxCell id="LoA7sYSP_AqC4O0k0csA-16" value="Site Selected" style="text;html=1;align=center;verticalAlign=middle;resizable=0;points=[];autosize=1;strokeColor=none;fillColor=none;" parent="1" vertex="1">
          <mxGeometry x="220" y="868" width="90" height="30" as="geometry" />
        </mxCell>
        <mxCell id="LoA7sYSP_AqC4O0k0csA-18" style="edgeStyle=orthogonalEdgeStyle;rounded=0;orthogonalLoop=1;jettySize=auto;html=1;entryX=0;entryY=0.5;entryDx=0;entryDy=0;" parent="1" source="LoA7sYSP_AqC4O0k0csA-17" target="LoA7sYSP_AqC4O0k0csA-11" edge="1">
          <mxGeometry relative="1" as="geometry">
            <mxPoint x="40" y="600" as="targetPoint" />
            <Array as="points">
              <mxPoint x="50" y="970" />
              <mxPoint x="50" y="610" />
            </Array>
          </mxGeometry>
        </mxCell>
        <mxCell id="LoA7sYSP_AqC4O0k0csA-17" value="Uploading Podcasts" style="whiteSpace=wrap;html=1;aspect=fixed;" parent="1" vertex="1">
          <mxGeometry x="180" y="930" width="80" height="80" as="geometry" />
        </mxCell>
        <mxCell id="LoA7sYSP_AqC4O0k0csA-20" value="Acknowledge Upload" style="text;html=1;align=center;verticalAlign=middle;resizable=0;points=[];autosize=1;strokeColor=none;fillColor=none;" parent="1" vertex="1">
          <mxGeometry x="45" y="710" width="140" height="30" as="geometry" />
        </mxCell>
        <mxCell id="LoA7sYSP_AqC4O0k0csA-21" value="Social Media State Chart" style="text;html=1;align=center;verticalAlign=middle;resizable=0;points=[];autosize=1;strokeColor=none;fillColor=none;" parent="1" vertex="1">
          <mxGeometry x="260" y="500" width="160" height="30" as="geometry" />
        </mxCell>
      </root>
    </mxGraphModel>
  </diagram>
</mxfile>
